/* XPM */
static char *result[] = {
/* columns rows colors chars-per-pixel */
"64 64 120 2 ",
"   c #313C6D",
".  c #374171",
"X  c #3D4675",
"o  c #3F4877",
"O  c #414776",
"+  c #414877",
"@  c #444B79",
"#  c #4B4E7B",
"$  c #47507E",
"%  c #4D517E",
"&  c #53527E",
"*  c #4D5582",
"=  c #565480",
"-  c #5A5682",
";  c #525985",
":  c #5D5884",
">  c #535B8A",
",  c #635B86",
"<  c #6D5C87",
"1  c #695E88",
"2  c #5B6392",
"3  c #6E628B",
"4  c #75638D",
"5  c #79668E",
"6  c #656B96",
"7  c #696E99",
"8  c #7E6A92",
"9  c #6B709B",
"0  c #836B93",
"q  c #897096",
"w  c #8E7399",
"e  c #907097",
"r  c #97779D",
"t  c #9B779D",
"y  c #94799C",
"u  c #9B7A9E",
"i  c #9D7DA0",
"p  c #A37DA1",
"a  c #888CB8",
"s  c #8D91BD",
"d  c #A481A4",
"f  c #AB83A5",
"g  c #B585A7",
"h  c #B387A9",
"j  c #B28AAB",
"k  c #BC8BAC",
"l  c #B890AE",
"z  c #C18DAD",
"x  c #C48FB0",
"c  c #C395B3",
"v  c #CC93B2",
"b  c #C59AB7",
"n  c #D599B7",
"m  c #D99AB7",
"M  c #D69EBA",
"N  c #D99BB9",
"B  c #E19EBB",
"V  c #D4A3BC",
"C  c #D9A4BE",
"Z  c #E9A3BE",
"A  c #9195C1",
"S  c #DBAEC4",
"D  c #E1A7C0",
"F  c #EDA6C1",
"G  c #E3A8C1",
"H  c #ECA9C3",
"J  c #F2A6C2",
"K  c #F4ACC6",
"L  c #FAAFC9",
"P  c #E4B1C7",
"I  c #E5B5CB",
"U  c #EDB7CB",
"Y  c #E6BCCE",
"T  c #EDBCCF",
"R  c #F3B1C9",
"E  c #FEB2CD",
"W  c #EFBED0",
"Q  c #FFB7D2",
"!  c #F0BED0",
"~  c #FEBCD5",
"^  c #FFBED9",
"/  c #DFC7D4",
"(  c #E7C6D4",
")  c #EAC6D4",
"_  c #E5C8D5",
"`  c #EBC9D6",
"'  c #E6CCD8",
"]  c #ECCDD9",
"[  c #F2C2D4",
"{  c #FCC2D7",
"}  c #F7C7D8",
"|  c #FFC3DA",
" . c #F3CCDB",
".. c #FCCADC",
"X. c #EDD2DD",
"o. c #F2D2DE",
"O. c #F9D0DF",
"+. c #FFCCE4",
"@. c #FFCDE8",
"#. c #EED6E1",
"$. c #EFDAE2",
"%. c #F5D7E3",
"&. c #FDD3E3",
"*. c #F4DAE4",
"=. c #F8DAE6",
"-. c #FFD4EA",
";. c #F6DEE8",
":. c #FEDBEB",
">. c #FFDDF0",
",. c #F1E0E7",
"<. c #F4E4EA",
"1. c #F8E6ED",
"2. c #F5EBEF",
"3. c #F9E8EE",
"4. c #F5EDF0",
"5. c #FAEDF2",
"6. c #F7F1F3",
"7. c #FAF2F5",
"8. c #FCF6F8",
"9. c #FFFFFF",
/* pixels */
"X X X X X X X X X X X X X X X X X X X X X X X X X X X X X X X X X X X X X X X X X X X X X X X X X X X X X X X X X X X X X X X X ",
"X X X X X X X X X X X X X X X X X X X X X X X X X X X X X X X X X X X X X X X X X X X X X X X X X X X X X X X X X X X X X X X X ",
"X X X X X X X X X X X X X X . . X X X X X X X X X X X X X X X X X X X X X X X X X X X X X X X X X X X X X X X X X X X X X X X X ",
"X X X X X X X X X X X X X @ ; * o X X X X X X X X X X X X X X X X X X @ o X X X X X X X X X X X X X X X X X X X X X X X X X X X ",
"X X X X X X X X X X X o   6 s a ; . X X X X X X X X X X X X X X X X ; 2 > X X X X X X X X X X X X X X X X X X X X X X X X X X X ",
"X X X X X X X X X X X +   7 A s ;   o X X X X X X X X X X X X X X . > 2 > X X X X X X X X X X X X X X X X X X X X X X X X X X X ",
"X X X X X X X X X X X X . ; 9 7 # X X X X X X X X X X X X X X X X X $ * $ X X X X X X X X X X X X X X X X X X X X X X X X X X X ",
"X X X X X X X X X X X X X .     X X X X X X X X X X X X X X X X X X X . X X X X X X X X X X X X X X X X X X X X X X X X X X X X ",
"X X X X X X X X X X X X X X + o X X X X X X X X X X X X X o X X X X X X X X X X X X X X X X X X X X X X X X X X X X X X X X X X ",
"X X X X X X X X X X X X X X X X X X X X X + X o + X v Q K K K K R K R K E M + X + + X X X X X X X X X X X X X X X X X X X X X X ",
"X X X X X X X X X X X X X X o + + + X X X # k v z k ) &.O.O.O.O.O.O.&. .&.} x z v k : X X X + + + + X X X X X X X X X X X X X X ",
"X X X X X X X X X X X X X X X X X X X 8 4 y ..-.+.&.=.o.*.*.=.o.*.%.*.*.%.%.&.O.-.+.d 4 8 + X X X X X X X X X X X X X X X X X X ",
"X X X X X X X X X X X X X X @ # % X : H | { #.%.%.*.` ` ` ` ( ( ( ) ` ` ) ' *.%.*.%.~ | R 3 X & # @ X X X X X X X X X X X X X X ",
"X X X X X X X X X X + + @ X 3 m n v V  .=.O.] ] ] ] ` ( ` ` ` ` ) ` ' ] ) ) ] X.` ] O.%.%.C v v N 8 X O @ + X X X X X X X X X X ",
"X X X X X X X X X X X X X < b -.-.+.&.%.o.o.( X.,.X.%.%.$.$.$.%.%.*.X.X.o.$.X.X.X.) ] %.o.&.&.+.:.M 5 X X X X X X X X X X X X X ",
"X X X X X X X X X X & & - V -.#.%.%.%.] ` ' X.,.6.4.4.2.4.4.4.5.4.4.6.4.6.4.6.6.2.] ] ] ' %.%.%.#.-.H , % = o X X X X X X X X X ",
"X X X X X X X @ X X d F N  .=.` ] ) X.,.2.2.<.2.4.2.2.4.2.2.2.2.<.4.4.4.<.4.<.4.2.<.<.2.<.X.) ] ' %. .N F h X X @ X X X X X X X ",
"X X X X X X + X O p I >.+.&.' ` X.;.,.2.2.4.2.2.2.2.2.2.2.2.2.2.4.2.2.4.4.4.4.2.2.4.2.4.4.$.;.$.) ] %.&.>.W f # X O o X X X X X ",
"X X X X X X O # q { &.$.%.] ` X.2.6.2.2.2.2.2.2.2.2.2.2.4.2.2.4.4.4.4.<.4.4.4.2.4.2.2.2.2.4.4.2.#.` ] %.$. .+.y & X X X X X X X ",
"X X X X X X X t ~ %.o.` ` ( X.2.2.2.2.2.2.2.2.2.2.2.2.2.2.2.2.2.2.4.4.4.4.<.2.4.2.4.4.4.2.4.2.2.4.#.) ) ]  .*.{ g X X O X X X X ",
"X X X X X % h I :.] ) ' ,.,.<.4.2.2.2.2.2.2.4.4.4.4.2.4.2.=.=.=.*.*.;.=.<.4.4.4.2.2.2.<.2.2.2.2.4.<.$.<.' ` ' :.W k = X X X X X ",
"X X X X X = L &.*.` ] ;.4.4.2.2.2.4.2.2.2.<.<.<.<.<.<.<.<.*.*.%.%.%.%.%.<.<.<.<.2.6.6.6.6.4.2.2.2.4.4.4.;.X.( %.&.^ , X o X X X ",
"X X X @ X % F ..*.` ,.4.2.2.2.2.2.2.2.2.=.%.*.*.%.%.%.%.*.*.%.%.%.%.%.%.*.%.%.%.<.9.9.9.9.4.2.4.2.4.2.2.2.<._ *. .L : X @ X X X ",
"X X X X 5 D  .O.` ) ,.4.2.4.2.2.6.<.=.=.*.%.%.%.%.%.%.%.%.*.%.%.%.%.%.%. .*.7.8.8.9.9.9.9.9.8.8.2.<.2.2.4.<.` `  .%.D e X X X X ",
"X X + 4 b -.o.] ` $.<.2.2.2.2.2.<.*.%.%.%.%.%.%.%.%.%.%.%.%.%.*.%.%.%.<.3.5.9.9.9.9.9.9.9.9.9.9.6.6.6.2.4.<.X.] ` %.-.V 5 @ X X ",
"X X # H &.*.` ` X.2.2.2.2.2.2.2.;.%.%.%.%.%.%.=.%.%.%.%.%.%.%.%.%.%.;.9.9.9.9.9.9.9.9.9.9.9.9.9.9.9.9.2.2.2.6.X.` ) %.&.E - X X ",
"X X X B +.=.` $.2.2.2.2.2.=.=.*.%.%.%.%.%.%.%.%.%.%.%.*.%.%.%.%.%.%.%.9.9.9.9.9.9.9.9.9.9.9.9.9.9.9.9.2.2.2.2.X.) ) =.+.Z $ X + ",
"X : p T  .o.` ,.6.2.2.2.<.%.%.%.%.%.%.%.%.*.%.%.%.%.%.%.%.=.%.%.%.;.5.8.9.9.9.9.9.9.9.9.9.9.9.9.9.9.9.7.4.2.2.,.#.) o. .[ d 3 X ",
"X y @.%.%.( ] $.4.2.2.<.%.%.%.%.%.%.%.%.*.%.%.%.%.%.*.%.%.%.%.%.%.5.9.9.9.9.9.9.9.9.9.9.9.9.9.9.9.9.9.9.7.2.2.6.<.] ` X.:.+.f X ",
"X 0 ~ %. .( ` $.4.2.;.%.%.%.%.%.%.%.%.%.%.%.%.%.=.%.%.%.%.%.%.%.O.5.9.9.9.9.9.9.9.9.9.9.9.9.9.9.9.9.9.9.7.2.2.2.<.2.'  .=.{ p X ",
"X 0 | %.%.` $.<.2.,.*.%.%.%.*.%.%.%.%.%.%.%.%.%.%.%.%.%.%.%.%.%.%.=.5.9.9.9.9.9.9.9.9.9.9.9.9.9.9.9.9.5.<.<.2.2.2.4.X. .=.{ p X ",
"# i | %. .] 4.4.<.%.%.%.%.%.%.%.%.%.*.*.%.%.%.*.%.%.%.%.%.%.=.%.%.%.%.8.9.9.9.9.9.9.9.9.9.9.9.9.9.9.7.%.O.*.2.2.2.4.] ] =.| h # ",
"m ..=.] ` ' 2.6.<.%.%.%.%.%.%.%.%.%.%.%.%.*.%.%.%.%.%.%.=.%.%.%.%.%.%.%.6.9.9.9.9.9.9.9.9.9.9.9.9.5.%.%.*.%.%.<.5.2.X._ ` =.} K ",
"N ..=.` X.,.2.<.;.*.%.%.%.%.%.%.%.%.%.%.%.%.%.%.%.%.%.%.%.%.*.%.%.%.%.%.<.3.3.8.9.8.9.9.9.9.7.<.3.;.%.%.%.%.%.<.4.2.<.X.` =.} K ",
"N | =.` $.6.2.=.%.%.%.%.%.=.%.%.%.%.%.%.%.%.%.%.%.%.%.%.%.%.%.%.%.%.%.%.%.%. .5.8.8.8.8.8.8.3.%.%.%.%.%.%.%.%.;.2.2.4.,.( =.} K ",
"N ..=.` $.4.2.,.%.%.%.%.%.%.%.%.%.*.%.%.=.%.%.%.%.%.%.%.%.%.%.%.%.%.%.%.%.*.%.%.%.%.%.%.%.%.%.*.%.%.%.%.%.%.%.%.*.2.4.;.) =.} K ",
"m ..*.` $.4.=.%.%.%.%.%.%.%.%.%.%.%.%.%.%.%.%.*.%.%.%.%.o.5.8.7.7.8.7.%.O.%.%.%.%.%.%.%.*.%.%.%.%.%.%.%.%.%.%.%.,.2.2.;.` =.} K ",
"B +.=.) $.2.%.%.%.%.%.=.%.=.%.%.=.%.%.%.%.%.%.%.=.%.%.*.3.9.9.9.9.9.9.3.*.%.%.%.%.%.=.%.=.%.%.%.%.%.%.%.%.%.%.%.=.<.2.,.) =...E ",
"v [ =.` $.2.%.%.%.%.%.%.%.*.%.%.%.%.%.%.%.%.%.%.%.%.%.1.9.9.9.9.9.9.9.9.5. .*.%.%.%.%.%.%.%.%.%.%.%.%.%.%.%.%.%.*.%.2.,.` =.} Z ",
"& d | ( ;.4.%.%.%.%.%.%.%.%.%.%.%.%.%.%.%.*.%.%.%.%.O.1.9.9.9.9.9.9.9.9.5.%.*.%.%.%.%.%.%.%.%.%.%.%.%.%.%.%.%.=.%.%.2.,.( | j & ",
"X 0 ~ ( X.;.%.%.%.%.%.%.%.%.%.%.%.%.%.%.%.%.%.%.%.%.%.=.5.9.9.9.9.9.9.5.;.%.%.%.%.%.%.%.%.%.%.%.%.%.%.%.%.%.%.%.%.%.=.$.( ~ t X ",
"X w ~ ( ` ` o.%.%.%.%.%.%.*.%.%.*.%.%.%.%.%.%.%.%.=.%.%.%.8.8.8.8.9.8.%.%.%.%.%.%.%.*.%.%.%.%.%.%.%.*.%.%.%.%.%.o.%.` ` ` ~ d X ",
"X e @.( ] ` ] X.%.%.%.%.%.%.%.%.=.%.%.%.%.%.%.*.*.%.%.%.%.%.*.*.*.*.=.*.%.%.%.=.%.=.%.%.=.%.%.%.%.%.%.%.%.*.%.*.o.] ` ` _ +.f O ",
"X - u P } _ ` o.*.%.%.%.=.%.%.%.%.%.%.%.%.%.%.=.%.%.%.%.%.%.%.%.%.%.%.*.%.%.%.*.%.%.%.%.%.*.%.%.%.=.%.%.%.%.%.o.] ` ` ) U d 1 X ",
"o X X B ! _ `  .%.#.%.%.%.%.%.%.%.%.%.%.%.%.%.%.%.%.%.%.%.%.=.*.%.%.*.=.%.%.%.%.%.%.%.=.%.%.%.%.%.%.%.%.%.%.%.] ` ` ` ! J # X X ",
"X X # F } _ ` ` ` ] o.%.%.%.*.%.%.%.%.%.%.%.%.%.%.%.%.%.%.%.%.%.%.%.%.%.%.%.%.%.%.%.%.*.%.%.%.%.%.%.%.%.%.*.*. .` ` _ ) E - X X ",
"X X + 3 c -._ ` ) ) ] ] ]  .] X.%.%.%.*.%.%.%.%.=.%.%.*.%.%.%.%.%.%.%.%.%.%.%.%.%.%.%.%.%.%.%.%.*.*.%.*.o.]  .] ` _ -.M 3 # X X ",
"X X X X 4 M Y ` ] ] ] ` ` ] ) ]  .%.o.o.%.%.%.%.%.%.%.%.%.%.%.%.%.%.%.%.%.%.%.%.%.%.%.%.%.%.%.o.o.o.o.O.] ` ` ` ) ) V q X X X X ",
"X X X X X = K [ / ( ) ] ) ` ) ] ] ) ] ] ) ' %.*.=.=.%.%.%.=.%.%.%.%.%.=.%.%.%.*.%.%.%.*.%.*.X.` ` ` ` ` ` ` ( _ W Q , X o X X X ",
"X X X o X X : c -.~  .' ] ' ' ] ` ) ) ` ` ` ] ' ` ] ] ` ] ' ] ] ] ] ] ] ] ] ] ] ]  .] ] ` ] ` ` ` ' ] ` ' ` | -.V : + X X X X X ",
"X X X X O X X 8 k f S } T ) W [ ) ] ] ] ` ] ` ` ` ` ` ` ` ` ` ) ` ` ` ` ` ` ` _ ] ` ` ` ` ` ` ` ) [ ) T } P f k w X X o X X X X ",
"X X X X X X o X o X h ^ F K K K ( ( ( ) ) ` ` ` ` ` ` ` ) ] ` ` ` ` ` ` ` ` ) ` ` ` _ ( ) ` ( ( K K K F ~ v X X X X X X X X X X ",
"X X X X X X X X X X # - = - # , G @.~ | | | ] ] ] ] ] ] ] _ ] ] ] ] ] ] ] ] ] ] ] ] | ^ | ~ @.R 3 # - & - & X X X X X X X X X X ",
"X X X X X X X X O O X X X X X o w d i p u f T ! W W ! ! W W ! T ! ! W W ! ! W T ! W l t p i f r @ X X X X X X + X X X X X X X X ",
"X X X X X X X X X X X o X X O X X X X X X = H E K K K K K K K L K K K K K K K H E K 1 X X X X X X X X O X X X X X X X X X X X X ",
"X X X X X X X X X X X X X X X X X X X X X X X X X X X X X X X X X X X X X X X X X X X X X X X X X X X X X X X X X X X X X X X X ",
"X o X X X o X X X X X X X X X X X X X X X X X X X X X X X X X X X X X X X X X X X X X X X X X X X X X X X X X X X X X X X X X X ",
"X o . X X o . X X X X X X X X X X X X X X X X X X X X X X X X X X X X X X X X X X X X X X X X X X X X X X X X X X X X X X X X X ",
"X X X X X o > > # X X X X X X X X X X X X X X X X X X X X X X X X X X X X X X X X X X X X X X X X X X X X X X X X X X X X X X X ",
"X X X o X @ 2 2 * . X X X X X X X X X X X X X X X X X X X X X X X X X X X X X X X X X X X X X X X X X X X X X X X X X X X X X X ",
"X X X X X o ; > @ X X X X X X X X X X X X X X X X X X X X X X X X X X X X X X X X X X X X X X X X X X X X X X X X X X X X X X X ",
"X X X X X X X X X X X X X X X X X X X X X X X X X X X X X X X X X X X X X X X X X X X X X X X X X X X X X X X X X X X X X X X X ",
"X X X X X X X X X X X X X X X X X X X X X X X X X X X X X X X X X X X X X X X X X X X X X X X X X X X X X X X X X X X X X X X X ",
"X X X X X X X X X X X X X X X X X X X X X X X X X X X X X X X X X X X X X X X X X X X X X X X X X X X X X X X X X X X X X X X X "
};
